Patient4_TMGait_0pt7_01_right_31_EMG.mot
version=1
nRows=26
nColumns=33
inDegrees=no
endheader
time	1LAddLong	2LGlutMax	3LGlutMed	4LIliopsoas	5LSemiMemb	6LBicFemLong	7LRecFem	8LVastMed	9LVastLat	10LGasMed	11LTibAnt	12lTibPost	13LPeroneusLong	14LSol	15LExtDigLong	16LFlexDigLong	17RAddLong	18RGlutMax	19RGlutMed	20RIliopsoas	21RSemiMemb	22RBicFemLong	23RRecFem	24RVastMed	25RVastLat	26RGasMed	27RTibAnt	28RTibPost	29RPeroneusLong	30RSol	31RExtDigLong	32RFlexDigLong
36.03	-0.012817	-0.086212	0.045013	-0.0177	-0.012207	0.21103	0.072479	-0.001068	-0.18509	-0.005646	-0.023346	0.009918	-0.018311	-0.067596	-0.026855	0.008698	0.04425	0.28976	0.28214	-0.067902	0.20889	0.062561	-0.35767	-0.069427	-0.032806	-0.055084	-0.042114	0.015106	0.08667	0.30411	-0.002441	-0.008087
36.031	-0.033722	-0.045166	0.017548	-0.015717	-0.001984	0.21042	0.10941	-0.000916	-0.26764	-0.012512	-0.01358	0.004272	0.019684	-0.06073	0.031281	-0.001373	0.033417	0.31342	0.11429	-0.042725	0.17517	-0.17654	-0.383	-0.05722	-0.033569	-0.044861	-0.011902	0.02121	0.095367	-0.036621	0	-0.007477
36.032	-0.041046	-0.024261	-0.007782	0.012512	0.039368	0.080719	0.071564	0.014954	-0.22888	-0.014801	-0.00351	0.007477	-0.050812	0.005646	0.094452	-0.005035	0.016632	0.32715	0.43686	-0.098267	0.23193	-0.27039	-0.3714	-0.085602	-0.01297	0.008087	-0.01358	-0.007629	0.084991	-0.050507	-0.00061	-0.005493
36.033	-0.027466	-0.025482	-0.030518	0.024414	0.016327	0.046234	-0.03952	0.017853	-0.10559	-0.004578	-0.001678	0.013275	-0.025787	0.048981	0.074768	-0.004272	0.020905	0.3035	0.44022	-0.055389	0.2005	-0.10468	-0.35339	-0.058746	-0.013275	0.00473	0.042419	-0.018005	0.059204	0.3833	-0.001984	-0.016937
36.034	-0.026855	0.001831	-0.023193	0.014954	-0.048218	0.13641	-0.08316	0.015869	-0.081787	-0.006561	0.000305	0.005035	-0.005035	0.017242	0.030212	-0.015259	0.019379	0.36804	0.44052	-0.058441	0.26688	0.014191	-0.35187	-0.041504	-0.04715	-0.00061	0.067291	-0.008545	-0.000153	0.15793	0.001984	-0.008698
36.035	-0.017853	-0.007477	0.019073	0.00473	-0.041504	0.21072	0.016327	0.006561	-0.065765	0.002594	-0.000763	0.011597	0.013733	0.026855	-0.00885	-0.015564	0.018311	0.36331	-0.025024	-0.1091	0.27985	-0.003967	-0.32806	-0.024719	-0.039368	0.021057	0.050659	0.02182	0.06424	-0.12344	0.00824	-0.011597
36.036	-0.000763	0.036316	0.042725	0.007019	-0.011902	0.029602	0.055542	0.003662	-0.079498	0.001831	-0.003052	0.014801	-0.000763	0.016632	-0.017395	-0.011597	0.027618	0.31647	-0.36697	-0.048523	0.28015	-0.041962	-0.34561	-0.057678	-0.050201	0.028992	0.071716	-0.000305	0.06424	0.086212	0.001678	-0.013428
36.037	-0.005646	0.098572	-0.009155	-0.001984	0.073242	-0.31082	0.093842	-0.00473	-0.057068	0.00885	0.004883	0.004578	0.005951	-0.008545	0.005951	-0.00946	0.029144	0.52719	0.25467	-0.019531	0.28458	-0.05661	-0.31693	-0.072784	-0.044403	0.012054	0.11688	-0.009613	-0.17181	0.04364	0.00412	-0.014496
36.038	-0.011597	0.044556	-0.008545	0.000916	0.074005	-0.28107	0.10849	-0.018768	-0.096893	0.016937	-0.004425	0.015411	0.013275	0.032043	0	0.002594	0.033722	0.44876	0.24002	0.017548	0.24384	-0.055237	-0.3714	-0.043488	0.016785	0.004883	0.11856	-0.01358	0.053101	-0.31601	0.000763	-0.016174
36.039	-0.01236	0.060272	0.023499	-0.009766	-0.003967	-0.22873	0.098114	0.005798	-0.072632	0.028229	-0.001984	0.004578	0.00946	0.032349	-0.034027	0.001984	0.028687	0.44525	0.003662	0.056915	0.13504	-0.047302	-0.3804	-0.006256	0.011749	0.021057	0.1268	-0.002747	0.32806	-0.54214	0.007935	-0.026245
36.04	-0.022278	0.067139	-0.042725	0.00061	-0.090027	-0.012207	0.098267	0.007629	-0.066071	0.016632	-0.006561	0.012054	0.016785	0.04303	-0.005951	0.002136	-0.006866	0.38025	0.13794	0.048218	0.15732	-0.23819	-0.39642	0.056915	-0.007782	0.00473	0.10208	0.010986	-0.13855	-0.69031	0.003815	-0.035858
36.041	-0.03891	-0.018005	-0.085449	-0.001373	-0.11444	0.18463	0.031738	0.012207	-0.062561	0.02533	-0.093079	0.008698	0.020447	0.016174	0.048218	0.005646	-0.016174	0.37033	0.034485	0.10941	0.27908	-0.24078	-0.39276	0.059052	0.012207	-0.013123	0.074463	-0.18768	-0.5632	-0.72906	0.002747	-0.027313
36.042	-0.047302	-0.053253	-0.007935	0.010834	-0.14572	0.17624	-0.001984	0.021667	0.004272	0.020447	-0.11536	0.006714	0.043488	0.002441	0.022278	0.005798	0.009308	0.47241	-0.4454	0.040588	0.26337	-0.096436	-0.37506	0.000916	-0.019684	-0.028076	0.061188	-0.34256	-0.79056	-1.0635	-0.002594	-0.03067
36.043	-0.024109	-0.050964	0.077515	0.028534	-0.14252	0.2655	-0.009766	0.021057	0.075684	0.018311	-0.084991	0.01236	0.074768	-0.10025	-0.01358	0.005493	0.012817	0.59311	-0.24826	-0.084686	0.19257	0.033875	-0.3595	-0.015106	-0.021973	0.013428	-0.063934	0.043945	-0.59403	-1.1528	0.001373	-0.032349
36.044	0.002441	-0.012512	0.069885	-0.000305	-0.093231	0.15961	0.000763	0.021057	0.088654	0.006714	-0.065155	0.011597	0.19165	-0.17716	-0.047302	0.003815	0.001984	0.55389	0.17654	-0.030365	0.10376	0.10757	-0.37827	-0.050812	-0.020294	-0.029297	-0.13825	0.038147	0.033875	-0.81345	0.001068	-0.036011
36.045	0.041351	-0.054169	-0.023804	-0.017853	0.041046	-0.003662	0.009766	0.014038	0.063782	-0.016785	0.029755	0.016479	0.14694	-0.10559	0.05127	0.010986	-0.015106	0.43579	-0.13611	0.034027	0.10269	0.068359	-0.40619	0.053101	0.00885	-0.07019	-0.11276	0.17364	0.31082	-0.24323	-0.001068	-0.026093
36.046	0.074158	-0.13382	-0.026703	0.011292	0.16388	-0.083313	0.010223	-0.005646	-0.035858	0.000305	0.075684	0.021973	-0.037384	0.008698	0.060883	0.015869	-0.006714	0.40359	-0.21545	0.023956	0.25879	0.032349	-0.42862	0.088806	0.02533	-0.015106	-0.06012	0.121	0.30395	0.16174	0.01236	-0.02655
36.047	0.071106	-0.1683	0.093689	0.018005	0.19043	-0.00061	-0.007477	-0.006256	-0.10742	0.012817	0.047913	0.017853	-0.13031	0.07843	-0.026093	0.010986	-0.016327	0.31281	-0.096893	-0.047913	0.27969	-0.025024	-0.43549	0.063934	0.007782	0.023041	-0.062561	0.13458	0.29572	1.534	0.001068	-0.001831
36.048	0.056458	-0.13947	0.090332	0.012207	0.17197	0.14908	-0.044708	-0.016479	-0.061798	0.010681	0.006104	0.020294	0.1709	0.12558	-0.079803	0.010986	-0.011749	0.34836	-0.27908	-0.059052	0.15564	-0.0383	-0.41107	-0.009003	-0.016327	0.000458	0.013733	0.05722	0.15793	2.2746	0.001831	-0.006561
36.049	0.042877	-0.13351	0.074921	0.005951	0.10101	0.20706	0.062103	-0.014496	-0.045471	0.004425	-0.000305	0.021667	0.042419	0.089722	-0.13123	0.007935	0.00061	0.36468	-0.21133	-0.024261	0.13519	-0.029449	-0.32822	0.012665	-0.000153	-0.005951	0.063324	-0.13977	0.11643	1.1963	-0.000458	-0.008698
36.05	0.029297	-0.13138	0.009308	0.009918	0.04837	0.19302	0.097046	-0.013428	-0.019226	-0.012512	0.050049	0.02121	-0.17609	0.10101	-0.11688	0	0.013885	0.33295	-0.13733	-0.031738	0.19974	-0.011292	-0.31891	-0.030212	-0.002747	0.005035	0.044861	0.016174	0.16708	0.64804	0.000458	-0.014954
36.051	0.03479	-0.1738	-0.030212	0.015717	0.032806	-0.43732	0.045471	-0.009308	0.041046	-0.017853	0.13458	0.022736	-0.10712	0.016937	-0.083313	-0.013123	-0.025482	0.3569	-0.027008	-0.029907	0.18097	-0.048218	-0.31342	-0.03418	0.006409	0.021667	-0.011139	0.27725	0.12634	0.24292	0.00061	-0.019379
36.052	0.030823	-0.14313	-0.040894	0.001831	0.04715	-0.90164	-0.033875	0.001373	0.06073	-0.027313	0.052795	0.012207	0.19913	0.054779	-0.056152	-0.021057	-0.024567	0.30456	-0.177	-0.065308	0.22232	-0.095215	-0.30914	-0.000763	-0.007324	0.031281	0.16449	0.092621	0.0354	-0.031281	0.00412	-0.009308
36.053	0.020752	-0.16296	-0.052948	0.001984	0.063934	-0.47989	-0.003967	0.01297	0.061493	-0.017395	0.002289	0.027161	0.30884	0.015411	-0.039368	-0.02121	-0.026245	0.27344	-0.34363	-0.10376	0.30258	-0.024719	-0.29098	-0.018463	-0.002136	0.027313	0.26245	0.027008	-0.018311	-0.019531	-0.00061	-0.010681
36.054	0.009918	-0.22217	-0.061646	0.010681	0.057678	-0.035858	0.058594	0.026245	0.15549	-0.018616	0.017395	0.026855	-0.019073	0.001221	0.020905	-0.031281	-0.016022	0.24124	-0.30533	-0.089417	0.29175	-0.002136	-0.26077	0.005646	0.000916	-0.007324	0.20783	0.003662	0.012512	-0.17471	0.011902	-0.011597
36.055	-0.015411	-0.23453	-0.025177	0.009766	0.018921	0.15854	0.098877	0.031128	0.12878	0.014343	0.057678	0.024567	0.001984	0.053406	-0.006104	-0.049133	-0.026398	0.29556	-0.15457	-0.060577	0.24109	0.00885	-0.31296	0.025024	0.009918	-0.016479	0.06073	-0.011139	0.023956	-0.16617	0.006409	-0.016174
